<svg width="552" height="180" viewBox="0 0 552 180" fill="none" xmlns="http://www.w3.org/2000/svg">
<path d="M54.9144 65.5224C56.3173 64.1152 58.5918 64.1152 59.9947 65.5224L81.8569 87.452C83.2598 88.8592 83.2598 91.1408 81.8569 92.548L59.9947 114.478C58.5918 115.885 56.3173 115.885 54.9144 114.478L33.0522 92.548C31.6493 91.1408 31.6493 88.8592 33.0522 87.452L54.9144 65.5224Z" fill="white"/>
<path fill-rule="evenodd" clip-rule="evenodd" d="M135.553 65.9862C133.346 64.7461 130.654 64.7461 128.447 65.9862L111.983 75.2341C109.686 76.5242 108.264 78.9586 108.264 81.5991V98.4009C108.264 101.041 109.686 103.476 111.983 104.766L128.447 114.014C130.654 115.254 133.346 115.254 135.553 114.014L152.017 104.766C154.314 103.476 155.736 101.041 155.736 98.4009V81.5991C155.736 78.9586 154.314 76.5242 152.017 75.2341L135.553 65.9862ZM177.455 68.7429C177.455 66.1024 176.032 63.668 173.735 62.3778L135.553 40.9301C133.346 39.69 130.654 39.69 128.447 40.9301L90.2647 62.3778C87.9679 63.668 86.5455 66.1024 86.5455 68.7429V111.257C86.5455 113.898 87.9679 116.332 90.2647 117.622L128.447 139.07C130.654 140.31 133.346 140.31 135.553 139.07L173.735 117.622C176.032 116.332 177.455 113.898 177.455 111.257V68.7429Z" fill="white"/>
<path d="M204.005 65.5224C205.408 64.1152 207.683 64.1152 209.086 65.5224L230.948 87.452C232.351 88.8592 232.351 91.1408 230.948 92.548L209.086 114.478C207.683 115.885 205.408 115.885 204.005 114.478L182.143 92.548C180.74 91.1408 180.74 88.8592 182.143 87.452L204.005 65.5224Z" fill="white"/>
<path d="M292.79 121V68.35H274.16V58H322.76V68.35H304.13V121H292.79ZM343.115 122.26C338.675 122.26 334.745 121.33 331.325 119.47C327.965 117.55 325.355 114.88 323.495 111.46C321.635 107.98 320.705 103.9 320.705 99.22V98.14C320.705 93.52 321.635 89.5 323.495 86.08C325.355 82.6 327.935 79.93 331.235 78.07C334.595 76.15 338.495 75.19 342.935 75.19C347.315 75.19 351.095 76.15 354.275 78.07C357.515 79.99 360.035 82.66 361.835 86.08C363.635 89.5 364.535 93.49 364.535 98.05V101.83H331.685C331.805 105.13 332.975 107.8 335.195 109.84C337.475 111.82 340.235 112.81 343.475 112.81C346.715 112.81 349.115 112.09 350.675 110.65C352.295 109.21 353.495 107.62 354.275 105.88L363.185 110.47C362.345 112.09 361.115 113.83 359.495 115.69C357.935 117.49 355.835 119.05 353.195 120.37C350.555 121.63 347.195 122.26 343.115 122.26ZM331.775 93.73H353.555C353.315 90.97 352.235 88.78 350.315 87.16C348.395 85.48 345.905 84.64 342.845 84.64C339.665 84.64 337.115 85.48 335.195 87.16C333.335 88.78 332.195 90.97 331.775 93.73ZM390.41 121C387.53 121 385.19 120.13 383.39 118.39C381.65 116.59 380.78 114.19 380.78 111.19V85.45H369.35V76.45H380.78V62.32H391.58V76.45H404.09V85.45H391.58V109.3C391.58 111.1 392.45 112 394.19 112H402.92V121H390.41ZM414.623 121V76.45H425.243V81.49H426.773C427.493 79.69 428.603 78.37 430.103 77.53C431.663 76.69 433.493 76.27 435.593 76.27H440.993V85.9H435.413C432.473 85.9 430.073 86.68 428.213 88.24C426.353 89.8 425.423 92.2 425.423 95.44V121H414.623ZM450.043 121V76.45H460.843V121H450.043ZM455.353 71.05C453.373 71.05 451.693 70.42 450.313 69.16C448.993 67.84 448.333 66.13 448.333 64.03C448.333 61.93 448.993 60.25 450.313 58.99C451.693 57.67 453.373 57.01 455.353 57.01C457.393 57.01 459.073 57.67 460.393 58.99C461.773 60.25 462.463 61.93 462.463 64.03C462.463 66.13 461.773 67.84 460.393 69.16C459.073 70.42 457.393 71.05 455.353 71.05ZM469.725 121L486.105 98.5L469.995 76.45H482.505L493.035 91.57H494.655L505.185 76.45H517.785L501.585 98.5L517.965 121H505.185L494.655 105.7H493.035L482.505 121H469.725Z" fill="white"/>
</svg>
