<svg width="552" height="180" viewBox="0 0 552 180" fill="none" xmlns="http://www.w3.org/2000/svg">
<path d="M54.9144 65.5224C56.3173 64.1152 58.5918 64.1152 59.9947 65.5224L81.8569 87.452C83.2598 88.8592 83.2598 91.1408 81.8569 92.548L59.9947 114.478C58.5918 115.885 56.3173 115.885 54.9144 114.478L33.0522 92.548C31.6493 91.1408 31.6493 88.8592 33.0522 87.452L54.9144 65.5224Z" fill="black"/>
<path fill-rule="evenodd" clip-rule="evenodd" d="M135.553 65.9862C133.346 64.7461 130.654 64.7461 128.447 65.9862L111.983 75.2341C109.686 76.5242 108.264 78.9586 108.264 81.5991V98.4009C108.264 101.041 109.686 103.476 111.983 104.766L128.447 114.014C130.654 115.254 133.346 115.254 135.553 114.014L152.017 104.766C154.314 103.476 155.736 101.041 155.736 98.4009V81.5991C155.736 78.9586 154.314 76.5242 152.017 75.2341L135.553 65.9862ZM177.455 68.7429C177.455 66.1024 176.032 63.668 173.735 62.3778L135.553 40.9301C133.346 39.69 130.654 39.69 128.447 40.9301L90.2647 62.3778C87.9679 63.668 86.5455 66.1024 86.5455 68.7429V111.257C86.5455 113.898 87.9679 116.332 90.2647 117.622L128.447 139.07C130.654 140.31 133.346 140.31 135.553 139.07L173.735 117.622C176.032 116.332 177.455 113.898 177.455 111.257V68.7429Z" fill="black"/>
<path d="M204.005 65.5224C205.408 64.1152 207.683 64.1152 209.086 65.5224L230.948 87.452C232.351 88.8592 232.351 91.1408 230.948 92.548L209.086 114.478C207.683 115.885 205.408 115.885 204.005 114.478L182.143 92.548C180.74 91.1408 180.74 88.8592 182.143 87.452L204.005 65.5224Z" fill="black"/>
<path d="M292.52 121V68.8H274.16V58H322.76V68.8H304.4V121H292.52ZM343.113 122.26C338.673 122.26 334.743 121.33 331.323 119.47C327.963 117.55 325.323 114.88 323.403 111.46C321.543 107.98 320.613 103.9 320.613 99.22V98.14C320.613 93.46 321.543 89.41 323.403 85.99C325.263 82.51 327.873 79.84 331.233 77.98C334.593 76.06 338.493 75.1 342.933 75.1C347.313 75.1 351.123 76.09 354.363 78.07C357.603 79.99 360.123 82.69 361.923 86.17C363.723 89.59 364.623 93.58 364.623 98.14V102.01H332.133C332.253 105.07 333.393 107.56 335.553 109.48C337.713 111.4 340.353 112.36 343.473 112.36C346.653 112.36 348.993 111.67 350.493 110.29C351.993 108.91 353.133 107.38 353.913 105.7L363.183 110.56C362.343 112.12 361.113 113.83 359.493 115.69C357.933 117.49 355.833 119.05 353.193 120.37C350.553 121.63 347.193 122.26 343.113 122.26ZM332.223 93.55H353.103C352.863 90.97 351.813 88.9 349.953 87.34C348.153 85.78 345.783 85 342.843 85C339.783 85 337.353 85.78 335.553 87.34C333.753 88.9 332.643 90.97 332.223 93.55ZM390.322 121C387.382 121 384.982 120.1 383.122 118.3C381.322 116.44 380.422 113.98 380.422 110.92V85.72H369.262V76.36H380.422V62.5H391.762V76.36H404.002V85.72H391.762V108.94C391.762 110.74 392.602 111.64 394.282 111.64H402.922V121H390.322ZM414.267 121V76.36H425.427V81.4H427.047C427.707 79.6 428.787 78.28 430.287 77.44C431.847 76.6 433.647 76.18 435.687 76.18H441.087V86.26H435.507C432.627 86.26 430.257 87.04 428.397 88.6C426.537 90.1 425.607 92.44 425.607 95.62V121H414.267ZM449.95 121V76.36H461.29V121H449.95ZM455.62 71.14C453.58 71.14 451.84 70.48 450.4 69.16C449.02 67.84 448.33 66.1 448.33 63.94C448.33 61.78 449.02 60.04 450.4 58.72C451.84 57.4 453.58 56.74 455.62 56.74C457.72 56.74 459.46 57.4 460.84 58.72C462.22 60.04 462.91 61.78 462.91 63.94C462.91 66.1 462.22 67.84 460.84 69.16C459.46 70.48 457.72 71.14 455.62 71.14ZM469.897 121L486.097 98.5L470.077 76.36H483.217L493.387 91.21H495.007L505.177 76.36H518.317L502.297 98.5L518.497 121H505.177L495.007 105.97H493.387L483.217 121H469.897Z" fill="black"/>
</svg>
